<svg width="1440" height="702" viewBox="0 0 1440 702" fill="none" xmlns="http://www.w3.org/2000/svg">
<rect width="1440" height="702" fill="#0F1C70"/>
<g clip-path="url(#clip0)">
<path opacity="0.13" d="M1439 0V415.449C1406.92 400.077 1377.57 383.234 1351.33 365.323C1340.03 357.703 1329.45 349.817 1319.25 341.796C1309.22 333.776 1299.93 325.622 1290.99 317.335C1277.14 304.369 1264.75 291.002 1253.99 277.233C1249.8 272.02 1245.97 266.807 1242.33 261.594C1229.2 242.479 1219 222.963 1211.89 203.18C1210.06 198.1 1208.61 193.021 1207.15 187.941C1204.41 177.515 1202.23 166.688 1199.67 156.128C1193.84 131.933 1185.09 108.006 1158.12 87.8218C1110.36 51.7306 1012.84 35.1554 966 0H1439Z" fill="#1234FF"/>
</g>
<g clip-path="url(#clip1)">
<path opacity="0.205" d="M1440 575.473V702.152H0V541.478C46.08 537.82 91.392 531.417 136.32 524.1C142.656 523.033 148.992 521.966 155.328 520.899C182.784 516.173 210.048 511.142 237.312 506.264C251.712 503.673 265.92 501.081 280.32 498.49C289.152 496.965 297.792 495.441 306.624 493.916C334.656 489.191 363.072 484.77 391.68 480.959C391.872 480.959 392.064 480.959 392.256 480.806C393.984 480.654 395.712 480.349 397.248 480.197C398.976 479.892 400.512 479.739 402.24 479.587C403.968 479.434 405.696 479.129 407.232 478.977C408.768 478.825 410.496 478.52 412.224 478.367C413.952 478.215 415.68 477.91 417.216 477.757C418.56 477.605 419.904 477.453 421.248 477.3C438.336 475.318 455.616 473.794 472.896 472.574C507.072 470.135 541.248 469.221 575.232 470.44C581.184 470.593 587.136 470.898 593.28 471.202C605.184 471.965 616.896 472.879 628.8 474.099C658.752 477.3 687.36 482.331 715.2 488.428C718.848 489.191 722.496 490.105 726.144 491.02C745.536 495.593 764.544 500.624 783.36 506.112C802.944 511.752 822.144 517.85 841.344 523.947C913.728 547.271 985.152 572.424 1064.64 587.058C1176.96 607.791 1303.68 605.199 1413.5 581.266C1423.49 579.284 1432.13 577.302 1440 575.473Z" fill="#1234FF"/>
</g>
<g clip-path="url(#clip2)">
<path opacity="0.205" d="M759 696.052H0V338.466C12.6729 329.521 26.72 321.824 41.3778 316.416C67.6397 306.431 96.3446 302.686 123.523 307.679C130.852 308.927 138.18 311.007 145.204 313.711C146.731 314.335 148.258 314.96 149.632 315.584C193.147 333.889 218.798 372.581 243.839 412.105C247.503 417.721 251.015 423.338 254.527 428.954C259.871 437.275 265.215 445.388 270.864 453.293C289.034 478.879 309.799 501.761 338.657 516.115C391.333 542.325 456.072 532.132 515.314 541.285C570.433 550.022 620.972 575.816 664.182 608.475C681.588 621.581 698.078 635.934 713.805 650.703C715.943 652.784 718.233 654.864 720.371 656.944C720.981 657.568 721.439 657.984 722.05 658.608C723.272 659.856 724.646 661.104 725.867 662.352C737.166 673.17 748.159 684.611 759 696.052Z" fill="#1234FF"/>
</g>
<defs>
<clipPath id="clip0">
<rect width="473" height="415.449" fill="white" transform="translate(966)"/>
</clipPath>
<clipPath id="clip1">
<rect width="1440" height="232.017" fill="white" transform="translate(0 469.983)"/>
</clipPath>
<clipPath id="clip2">
<rect width="759" height="390.661" fill="white" transform="translate(0 305.39)"/>
</clipPath>
</defs>
</svg>
